PathFileType	4	(X/Y/Z)	/Users/itak/Documents/Research/Walk-IL/dataset/trc/00005_00004.trc
DataRate	CameraRate	NumFrames	NumMarkers	Units	OrigDataRate	OrigDataStartFrame	OrigNumFrames
100.000000	100.000000	4	53	mm	100.000000	441	589
Frame#	Time	RPSI			LPSI			L3			STRN			T10			C7			CLAV			RBAK			LBAK			LSHO			LUPA			LAEL			LAOL			LWTS			LWPS			LFRA			LIFD			LHPS			LHTS			RSHO			RUPA			RAEL			RAOL			RWTS			RWPS			RFRA			RIFD			RHTS			RHPS			RBHD			LFHD			RFHD			LBHD			LHIP			RHIP			RASI			LASI			LKNE			LTHI			LANK			LTIP			LTOE			LMT1			LMT5			LHEE			RKNE			RTHI			RANK			RTIP			RTOE			RMT1			RMT5			RHEE			
		X1	Y1	Z1	X2	Y2	Z2	X3	Y3	Z3	X4	Y4	Z4	X5	Y5	Z5	X6	Y6	Z6	X7	Y7	Z7	X8	Y8	Z8	X9	Y9	Z9	X10	Y10	Z10	X11	Y11	Z11	X12	Y12	Z12	X13	Y13	Z13	X14	Y14	Z14	X15	Y15	Z15	X16	Y16	Z16	X17	Y17	Z17	X18	Y18	Z18	X19	Y19	Z19	X20	Y20	Z20	X21	Y21	Z21	X22	Y22	Z22	X23	Y23	Z23	X24	Y24	Z24	X25	Y25	Z25	X26	Y26	Z26	X27	Y27	Z27	X28	Y28	Z28	X29	Y29	Z29	X30	Y30	Z30	X31	Y31	Z31	X32	Y32	Z32	X33	Y33	Z33	X34	Y34	Z34	X35	Y35	Z35	X36	Y36	Z36	X37	Y37	Z37	X38	Y38	Z38	X39	Y39	Z39	X40	Y40	Z40	X41	Y41	Z41	X42	Y42	Z42	X43	Y43	Z43	X44	Y44	Z44	X45	Y45	Z45	X46	Y46	Z46	X47	Y47	Z47	X48	Y48	Z48	X49	Y49	Z49	X50	Y50	Z50	X51	Y51	Z51	X52	Y52	Z52	X53	Y53	Z53	

442	4.41	982.3202514648438	1040.03271484375	-186.2616882324219	932.6926879882812	1036.71435546875	-343.8375549316406	950.01123046875	1106.162963867188	-272.0300903320312	1161.615600585938	1302.578247070312	-319.0507202148438	917.306884765625	1247.62060546875	-271.3832702636719	955.7432250976562	1515.983764648438	-292.1980895996094	1115.042602539062	1426.763427734375	-314.9295349121094	922.7482299804688	1378.085571289062	-203.7277679443359	923.4244384765625	1476.519165039062	-386.5144653320312	1012.970031738281	1482.930419921875	-476.0513916015625	963.9874877929688	1360.766357421875	-546.751220703125	937.7561645507812	1146.757446289062	-572.7787475585938	904.3287963867188	1136.075439453125	-472.8167114257812	1001.055725097656	882.2627563476562	-543.848876953125	914.8392944335938	879.91552734375	-566.6812744140625	933.952392578125	1030.4189453125	-583.2246704101562	1005.075622558594	697.0568237304688	-532.322509765625	933.7410888671875	786.4124755859375	-573.8298950195312	1003.549865722656	785.4957275390625	-561.986083984375	1063.33642578125	1503.605346679688	-133.8818969726562	1064.879272460938	1431.972412109375	-60.20093154907227	1042.189575195312	1162.912475585938	-28.60301399230957	1023.612487792969	1133.1220703125	-122.2210464477539	1193.036499023438	921.55517578125	-88.76924133300781	1144.153198242188	898.0047607421875	-13.87308216094971	1065.353149414062	1087.571533203125	-16.57332992553711	1232.553955078125	740.9826049804688	-111.5113983154297	1243.092163085938	817.4622802734375	-82.42482757568359	1198.155883789062	804.6148681640625	-23.78694534301758	1018.377990722656	1705.433227539062	-364.888427734375	1203.027709960938	1699.47802734375	-247.9694976806641	1200.16357421875	1703.601196289062	-346.3142700195312	1029.935302734375	1694.40380859375	-221.4964599609375	1003.208251953125	943.6909790039062	-476.2880859375	1126.848754882812	942.0836791992188	-120.22412109375	1201.797241210938	977.456787109375	-220.2056579589844	1131.39697265625	991.6748046875	-444.8367004394531	1089.187622070312	490.904296875	-480.5984802246094	1051.299438476562	637.60400390625	-493.5278625488281	674.2593994140625	184.5118713378906	-450.8655700683594	871.7540283203125	343.4588012695312	-482.3983154296875	828.3206176757812	34.86886978149414	-386.3326416015625	793.7307739257812	82.73117065429688	-370.50732421875	753.3692016601562	88.11912536621094	-468.4613647460938	637.5853881835938	243.6656188964844	-398.957275390625	1223.321655273438	521.7963256835938	-187.5673217773438	1177.920166015625	784.848876953125	-132.3387145996094	1159.260864257812	29.62099456787109	-204.5998077392578	1218.600341796875	392.8162231445312	-187.1929016113281	1382.50634765625	26.79649925231934	-279.6666564941406	1315.33740234375	34.45229721069336	-298.2097473144531	1309.626708984375	27.29620170593262	-201.4849395751953	1098.296997070312	31.82705116271973	-240.8926086425781	
443	4.42	988.2003784179688	1040.69677734375	-185.5457611083984	938.9993896484375	1037.313110351562	-343.2222595214844	956.0940551757812	1106.907104492188	-271.2411193847656	1167.808227539062	1303.12744140625	-318.1373596191406	923.685791015625	1248.39501953125	-270.3473205566406	962.2091064453125	1516.739501953125	-291.0223999023438	1121.412109375	1427.386840820312	-313.9609069824219	929.23828125	1378.86767578125	-202.5531158447266	929.7218017578125	1477.319580078125	-385.3153076171875	1019.161682128906	1483.692260742188	-474.9547119140625	970.2544555664062	1361.50048828125	-545.62744140625	944.5606689453125	1147.392822265625	-571.7130126953125	911.138671875	1136.62158203125	-471.8570556640625	1009.868103027344	883.5142211914062	-542.6464233398438	923.6854248046875	880.3983764648438	-565.6040649414062	941.5327758789062	1031.04345703125	-582.1463012695312	1015.448425292969	698.27685546875	-531.1005859375	943.4315185546875	787.07958984375	-572.7186889648438	1013.219970703125	786.7964477539062	-560.6857299804688	1070.037475585938	1504.22705078125	-132.8501586914062	1071.660766601562	1432.599975585938	-59.17204284667969	1049.18798828125	1163.589477539062	-27.23700141906738	1030.367431640625	1133.703491210938	-120.8033065795898	1200.084228515625	922.2747192382812	-87.35603332519531	1151.322143554688	898.7498168945312	-12.40489673614502	1072.371948242188	1088.281616210938	-15.20062923431396	1239.857177734375	741.7533569335938	-109.9829940795898	1250.285278320312	818.3120727539062	-80.99993133544922	1205.468627929688	805.4237670898438	-22.27803039550781	1024.955688476562	1706.211303710938	-363.5984497070312	1209.507446289062	1700.090087890625	-246.5553131103516	1206.71435546875	1704.35888671875	-344.8800048828125	1036.381713867188	1694.945556640625	-220.2364349365234	1009.942016601562	944.2518310546875	-475.8520812988281	1132.166381835938	942.2230834960938	-118.9357681274414	1207.78271484375	977.9700317382812	-218.9140930175781	1137.75439453125	992.3623046875	-443.6780700683594	1101.423461914062	491.88671875	-479.4284973144531	1061.521484375	638.1278686523438	-492.4766235351562	686.1790771484375	186.4480895996094	-449.9422607421875	883.6696166992188	344.8637390136719	-481.2985229492188	842.6115112304688	36.91856002807617	-391.0971069335938	807.6497802734375	83.66471099853516	-373.4751281738281	766.2077026367188	91.77816009521484	-470.9229125976562	649.5128784179688	243.9719543457031	-396.2264404296875	1226.364990234375	521.3955688476562	-186.8341674804688	1182.64892578125	784.6798706054688	-131.2830810546875	1159.265625	29.62866973876953	-204.6147766113281	1220.655883789062	392.5267028808594	-186.5499877929688	1382.5595703125	26.80965232849121	-279.6524047851562	1315.395751953125	34.35767364501953	-298.0986328125	1309.607666015625	27.21743965148926	-201.3975219726562	1098.305419921875	31.89223289489746	-240.9011840820312	
444	4.43	993.8900146484375	1041.329345703125	-184.8618774414062	945.150146484375	1037.921020507812	-342.639892578125	962.0366821289062	1107.637084960938	-270.4625244140625	1173.84033203125	1303.652099609375	-317.2571716308594	929.9293212890625	1249.146362304688	-269.3556823730469	968.5138549804688	1517.474731445312	-289.906005859375	1127.625854492188	1427.995727539062	-313.0484313964844	935.577392578125	1379.623779296875	-201.4448089599609	935.850830078125	1478.082885742188	-384.1716003417969	1025.192504882812	1484.424560546875	-473.9121398925781	976.356689453125	1362.202880859375	-544.5526733398438	951.2449340820312	1147.998291015625	-570.7014770507812	917.8533935546875	1137.115112304688	-470.9401245117188	1018.833374023438	884.8327026367188	-541.5327758789062	932.6670532226562	880.8448486328125	-564.5608520507812	949.0751342773438	1031.634399414062	-581.1268310546875	1026.190063476562	699.5939331054688	-530.0143432617188	953.3583374023438	787.7435302734375	-571.669921875	1023.147827148438	788.1763916015625	-559.5336303710938	1076.56640625	1504.831176757812	-131.8756103515625	1078.27783203125	1433.19970703125	-58.1981201171875	1056.063110351562	1164.238037109375	-25.94376182556152	1037.0234375	1134.26025390625	-119.452018737793	1206.960815429688	922.923095703125	-85.97042083740234	1158.31982421875	899.46142578125	-10.94826412200928	1079.25146484375	1088.971069335938	-13.90063571929932	1246.9091796875	742.422607421875	-108.4298324584961	1257.285766601562	819.08447265625	-79.60598754882812	1212.55517578125	806.1798706054688	-20.77683067321777	1031.444091796875	1706.996459960938	-362.3774108886719	1215.887573242188	1700.615112304688	-245.198974609375	1213.174194335938	1705.03662109375	-343.4979858398438	1042.720703125	1695.480346679688	-219.0453948974609	1016.499084472656	944.8623657226562	-475.4500122070312	1137.344116210938	942.3442993164062	-117.7109527587891	1213.599365234375	978.4647216796875	-217.6378936767578	1143.956176757812	993.0513916015625	-442.5319519042969	1113.23388671875	492.9795532226562	-478.2013549804688	1071.407592773438	638.7269897460938	-491.4771728515625	698.8577270507812	186.9682769775391	-449.1421508789062	895.6420288085938	345.7452392578125	-480.2124328613281	858.236572265625	38.93623352050781	-395.1275329589844	822.531005859375	84.11186218261719	-375.9102478027344	780.3422241210938	94.49017333984375	-472.9881896972656	661.7559204101562	242.7681884765625	-393.874755859375	1229.260986328125	520.9822387695312	-186.1573944091797	1187.300415039062	784.5657348632812	-130.3667602539062	1159.271118164062	29.6389102935791	-204.6349792480469	1222.605224609375	392.2548522949219	-185.9449310302734	1382.602905273438	26.8056755065918	-279.624267578125	1315.463500976562	34.26362228393555	-298.0218200683594	1309.598022460938	27.16037940979004	-201.3289947509766	1098.315307617188	31.9607105255127	-240.9196014404297	
445	4.44	999.4215698242188	1041.943725585938	-184.2058410644531	951.14892578125	1038.539916992188	-342.0787658691406	967.8408813476562	1108.354614257812	-269.6809692382812	1179.729736328125	1304.165405273438	-316.4019775390625	936.0521850585938	1249.879638671875	-268.3999633789062	974.660888671875	1518.19189453125	-288.8485412597656	1133.689208984375	1428.592529296875	-312.179931640625	941.7698974609375	1380.35400390625	-200.4040374755859	941.8285522460938	1478.8173828125	-383.0879516601562	1031.084106445312	1485.129638671875	-472.9179077148438	982.3140869140625	1362.878173828125	-543.5285034179688	957.8145141601562	1148.584350585938	-569.741943359375	924.4500122070312	1137.574951171875	-470.0740051269531	1027.924560546875	886.2233276367188	-540.50146484375	941.7700805664062	881.274658203125	-563.5546264648438	956.5762329101562	1032.203857421875	-580.166259765625	1037.284057617188	701.0595092773438	-529.0658569335938	963.4995727539062	788.4202270507812	-570.68115234375	1033.3154296875	789.6756591796875	-558.5283813476562	1082.921997070312	1505.430541992188	-130.9580993652344	1084.723999023438	1433.783569335938	-57.27446746826172	1062.80712890625	1164.866821289062	-24.73563766479492	1043.601318359375	1134.79345703125	-118.1813507080078	1213.6650390625	923.5087890625	-84.61574554443359	1165.12890625	900.1471557617188	-9.515212059020996	1085.98779296875	1089.647705078125	-12.6795825958252	1253.7060546875	743.010009765625	-106.8638534545898	1264.083984375	819.7772216796875	-78.22721862792969	1219.3994140625	806.8951416015625	-19.27447700500488	1037.83642578125	1707.7861328125	-361.2291870117188	1222.164672851562	1701.064575195312	-243.9040374755859	1219.536987304688	1705.640747070312	-342.1732788085938	1048.951171875	1696.014404296875	-217.9242095947266	1022.860534667969	945.5152587890625	-475.0643005371094	1142.41845703125	942.4757690429688	-116.5718688964844	1219.253784179688	978.93603515625	-216.3954925537109	1150	993.766357421875	-441.4204406738281	1124.628051757812	494.1642150878906	-476.9224853515625	1080.984985351562	639.393798828125	-490.5378723144531	712.2661743164062	186.0562591552734	-448.495849609375	907.69873046875	346.0517272949219	-479.1731872558594	875.0464477539062	40.78866195678711	-398.2305297851562	838.2777099609375	84.05984497070312	-377.6815185546875	795.6414794921875	96.11057281494141	-474.5482177734375	674.3304443359375	240.1269378662109	-392.0100402832031	1231.997802734375	520.5591430664062	-185.5159301757812	1191.8681640625	784.5028686523438	-129.5798187255859	1159.27685546875	29.65023612976074	-204.6599273681641	1224.45263671875	391.99072265625	-185.3644714355469	1382.63671875	26.78834342956543	-279.5907897949219	1315.5380859375	34.17861175537109	-297.9721069335938	1309.597045898438	27.12308883666992	-201.2751007080078	1098.327270507812	32.03406524658203	-240.9452819824219	
